<!--?xml version="1.0" standalone="no"?-->              <svg id="sw-js-blob-svg" viewBox="0 0 100 100" xmlns="http://www.w3.org/2000/svg">                    <defs>                         <linearGradient id="sw-gradient" x1="0" x2="1" y1="1" y2="0">                            <stop id="stop1" stop-color="rgba(248, 117, 55, 1)" offset="0%"></stop>                            <stop id="stop2" stop-color="rgba(255, 170.232, 30.314, 1)" offset="100%"></stop>                        </linearGradient>                    </defs>                <path fill="url(#sw-gradient)" d="M23.7,-32.6C29.1,-28.7,30.8,-19.6,32.8,-11.2C34.7,-2.8,36.9,4.9,36,13C35.1,21,31.2,29.3,24.7,35.2C18.2,41,9.1,44.3,1,42.9C-7.2,41.6,-14.4,35.6,-21.8,30.1C-29.2,24.6,-36.8,19.5,-40.9,12.1C-45.1,4.6,-45.8,-5.2,-42.9,-13.9C-40,-22.5,-33.5,-29.9,-25.8,-33C-18.1,-36.1,-9,-35,0.1,-35.1C9.1,-35.2,18.3,-36.5,23.7,-32.6Z" width="100%" height="100%" transform="translate(50 50)" stroke-width="0" style="transition: all 0.3s ease 0s;" stroke="url(#sw-gradient)"></path>              </svg>